<?xml version="1.0" encoding="utf-8"?>
<!-- Generator: Adobe Illustrator 27.2.0, SVG Export Plug-In . SVG Version: 6.00 Build 0)  -->
<svg version="1.1" xmlns="http://www.w3.org/2000/svg" xmlns:xlink="http://www.w3.org/1999/xlink" x="0px" y="0px"
	 viewBox="0 0 820.4 247.9" style="enable-background:new 0 0 820.4 247.9;" xml:space="preserve">
<style type="text/css">
	.st0{display:none;}
	.st1{display:inline;fill:#020202;}
	.st2{fill:#FFFFFF;}
	.st3{clip-path:url(#SVGID_00000092436705059576503970000013378402686923227029_);}
	.st4{clip-path:url(#SVGID_00000182492998604479378890000011741750695120815243_);}
</style>
<g id="Calque_2" class="st0">
	<rect x="-11.7" y="-28.6" class="st1" width="808.4" height="313"/>
</g>
<g id="Calque_1">
	<g>
		<path class="st2" d="M235.3,145.7c2.9-6.4,6.3-13.4,10.3-21c4-7.6,8.3-15.3,12.7-23.1c4.5-7.9,9.2-15.7,14-23.5
			c4.9-7.8,9.6-15.1,14.4-22.1c4.7-6.9,9.2-13.2,13.4-19c4.2-5.7,8-10.4,11.2-14.1c1.9-2.1,4.1-3.5,6.6-4.1c2.6-0.6,5.2-0.7,7.8-0.4
			c2.6,0.3,5.2,0.9,7.8,1.8c2.6,0.9,4.9,1.9,6.9,2.9c-6.6,5.9-13.6,13.1-21,21.8c-7.4,8.6-14.8,17.9-22.2,27.6
			c-7.4,9.8-14.4,19.8-21.2,29.9c-6.8,10.1-12.8,19.6-18,28.5s-9.4,16.7-12.4,23.6s-4.6,11.9-4.6,15c-1.6-1.4-3-2.9-4.4-4.3
			c-1.4-1.4-2.4-3-3.1-4.7c-0.7-1.7-1-3.8-0.8-6.1C233,152,233.8,149.1,235.3,145.7L235.3,145.7z M196.1,141.4
			c0.9-5.1,2.8-9,5.8-11.7s6.5-4.4,10.4-5.1c3.9-0.8,8-0.7,12.1,0.3s7.7,2.6,10.7,4.7c-3.9,2.3-7,5.2-9.5,8.9
			c-2.5,3.6-4.3,7.5-5.5,11.6c-1.1,4.1-1.5,8.2-1.2,12.5c0.4,4.3,1.5,8.2,3.5,11.8c3.4,5.7,8.4,9.7,14.8,12
			c6.4,2.3,13.5,3.1,21.2,2.6c7.7-0.6,15.7-2.3,23.9-5.2c8.2-2.9,15.8-6.8,22.8-11.5s13-10.1,18.1-16.2s8.4-12.5,10-19.2
			c1.3-6.1,1.2-11.2-0.2-15.3s-3.8-7.4-7-10s-7-4.5-11.5-5.9s-9-2.3-13.6-2.8s-9.2-0.8-13.7-0.8h-11.5l2.8-6.2
			c8.1-2.3,17.1-5.9,26.9-10.9s19.1-10.9,28.1-17.7c8.9-6.8,16.8-14.3,23.7-22.6c6.9-8.3,11.5-17,13.9-26.1
			c-5.7-3.9-12.5-6.5-20.4-8s-16.2-1.7-25-0.7S308,13,299,16.3s-17.5,7.7-25.5,13.3s-15.2,12.3-21.6,20.2s-11.4,17-14.8,27.1
			c-3.3-2.9-6.3-5.8-9-8.9s-4.8-6.2-6.1-9.4c-1.4-3.2-2-6.6-1.8-10.2c0.1-3.6,1.4-7.4,3.6-11.4c5.4-7.7,12.8-14.2,22.1-19.5
			s19.4-9.4,30.3-12.2c10.9-2.9,22.2-4.6,33.9-5.1c11.6-0.6,22.7,0,33.1,1.6s19.7,4.3,27.9,8c8.1,3.7,14.1,8.4,18,14.1
			c4,5.9,4.5,12.1,1.4,18.7s-8.8,13.3-17.1,19.8c-8.4,6.6-18.9,12.9-31.7,19c-12.8,6.1-26.9,11.3-42.3,15.8
			c6.1-0.4,12.3-0.7,18.5-0.9c6.2-0.1,11.9,0.4,17.1,1.6s9.7,3.3,13.5,6.3s6.2,7.4,7.4,13.1c1.3,7.3,0.9,14.4-1.2,21.2
			c-2.1,6.9-5.4,13.2-10.1,19.2s-10.4,11.4-17.1,16.3c-6.8,4.9-14.2,9.1-22.3,12.6s-16.6,6.2-25.5,8.1c-8.9,1.9-17.8,2.9-26.7,2.9
			c-9.1,0-17.5-1.3-25.2-4c-7.6-2.6-14-6.4-19.2-11.4c-5.1-4.9-8.9-10.9-11.2-17.8S194.6,150,196.1,141.4"/>
		<path class="st2" d="M54.2,130.6c-11,7-23.7,10.9-38.2,11.5c-2.9,0.4-5.5,0.4-7.8-0.1c-2.4-0.5-4.3-1.5-5.8-3.1
			c-1.2-1.3-2-2.9-2.2-4.8c-0.3-1.9,0-3.8,0.9-5.9c1.2-2.8,3.3-5.4,6.3-7.7c3-2.2,6.8-4,11.5-5.2c3.7-1,7.4-1.3,11.1-1.1
			c3.7,0.3,7.4,1,11.3,2.2c2.6-4.1,5-8.8,7.2-14.3c2.1-5.5,4.2-11.3,6.1-17.4c1.9-6.1,3.8-12.3,5.8-18.6c1.9-6.3,3.9-12.4,5.9-18.2
			s4.2-11.2,6.6-16.1s5-8.9,8-12.1c1.6-1.8,3.7-3,6.1-3.8s4.9-1.2,7.4-1.2s5,0.2,7.3,0.7c2.4,0.5,4.3,1.2,5.8,2.1s2.5,1.8,2.9,2.8
			s-0.1,1.9-1.4,2.8c-3,1.9-5.5,5.2-7.5,9.9s-4,10.2-5.8,16.6C93.9,55.9,92,62.7,90.2,70c-1.9,7.3-4.1,14.4-6.7,21.4
			s-5.7,13.5-9.4,19.5c-3.7,6.1-8.2,11-13.6,14.8c5.1,3.7,10.4,7.6,16,11.4c5.6,3.9,11.5,7.6,17.6,11c6.2,3.4,12.6,6.4,19.3,9.1
			s13.6,4.7,20.8,6c7.1,1.3,14.6,1.8,22.2,1.5s15.6-1.8,23.6-4.3c1.1-0.3,1.9,0.7,2.6,3c0.6,2.4,0.7,5.1,0.2,8.2
			c-0.5,3.1-1.8,6.1-3.8,9.1c-2,2.9-5.2,4.8-9.5,5.7c-6.4,1.3-12.8,1.2-19.4-0.3c-6.5-1.5-13.1-3.9-19.8-7.1
			c-6.7-3.2-13.3-7-19.9-11.4s-13.2-8.9-19.6-13.5s-12.7-9-18.8-13.3C65.8,137,59.9,133.4,54.2,130.6"/>
		<path class="st2" d="M145.5,69c-0.6-1.3-1.4-2-2.6-2c-1.5-0.1-3.2,0.6-5.1,2.1c-1.9,1.5-3.9,3.6-6,6.4s-4.4,6.3-6.7,10.4
			c-2.3,4.1-4.6,8.7-6.9,13.8c-1.4,3.2-2.6,6.6-3.5,10.3s-1.5,7.2-1.6,10.5c-0.1,3.4,0.2,6.3,1,8.8c0.8,2.5,2.1,4.2,4.1,4.9
			c1.5,0.7,3.2,0.5,4.9-0.5c1.7-1,3.4-2.5,5.1-4.6c1.7-2.1,3.5-4.6,5.3-7.6s3.6-6.1,5.3-9.3c1.7-3.2,3.4-6.5,4.9-9.7
			c1.6-3.2,3.1-6.2,4.5-9c1.5-3.6,3.1-7.1,4.5-10.3c1.5-3.2,2.7-6.1,3.7-8.7s1.6-4.8,2-6.6c0.3-1.8,0.2-3-0.5-3.7
			c-0.8-0.7-0.4-1.4,1.1-2.3c1.5-0.9,3.3-1.4,5.5-1.5s4.5,0.4,6.8,1.5c2.4,1.1,4,3.3,5,6.6c1,3.2,0.8,7.1-0.5,11.6
			c-1.3,4.6-3.2,9.3-5.5,14.3c-2.4,4.9-4.9,9.8-7.6,14.7c-2.7,4.8-4.9,9.2-6.8,12.9c-1.8,3.8-2.9,6.8-3.1,9.1
			c-0.3,2.2,0.8,3.3,3.4,3.1c1-0.1,2.4-1,4.1-2.6c1.8-1.6,3.7-3.8,5.8-6.3s4.3-5.5,6.5-8.7s4.3-6.4,6.3-9.6c1.9-3.2,3.6-6.2,5.2-9.1
			c1.5-2.9,2.6-5.2,3.3-7.1c0.3-0.9,0.9-1.4,1.6-1.6c0.8-0.2,1.5-0.2,2.1,0c0.7,0.2,1.2,0.7,1.6,1.3c0.4,0.7,0.4,1.4-0.1,2.1
			c-0.9,1.9-2.1,4.4-3.8,7.7c-1.6,3.2-3.6,6.7-5.9,10.4s-4.7,7.4-7.3,11.1s-5.4,7.2-8.2,10.2s-5.6,5.6-8.5,7.6s-5.6,3-8.2,3
			c-4.2,0.2-7.3-1.5-9.4-5.1c-2.1-3.6-2.9-8.2-2.3-13.8c-2.1,3.4-4.3,6.5-6.6,9.3s-4.8,5-7.5,6.7c-2.7,1.6-5.5,2.6-8.6,3
			c-3,0.3-6.3-0.3-10-1.8c-4.4-1.8-7.6-4.3-9.5-7.7s-3.1-7.1-3.4-11.1s0-8.2,1-12.5s2.2-8.3,3.6-11.9c2.6-6.7,5.6-12.4,8.8-17.2
			c3.2-4.8,6.7-8.7,10.3-11.7c3.6-3,7.4-5.2,11.2-6.5s7.7-1.9,11.7-1.8c1.3,0.1,2.7,0.4,4.2,0.7c1.5,0.4,2.9,1,4.1,1.9
			c1.3,0.9,2.3,2.1,3.2,3.5c0.9,1.5,1.3,3.3,1.3,5.5"/>
		<path class="st2" d="M411.4,95.9c-1-1.8-2.3-2.8-3.7-2.8c-1.4,0-2.9,0.6-4.5,1.7s-3.2,2.6-4.9,4.6c-1.7,1.9-3.3,3.9-4.9,5.8
			c-2.8,3.6-5.4,7.7-8,12.4c-2.6,4.7-4.9,9.5-6.8,14.4c-1.9,4.9-3.6,9.8-4.8,14.6s-1.8,9.2-1.9,13.2s0.5,7.2,1.7,9.8s3.2,4.1,6,4.7
			c2,0.4,4.2-0.5,6.6-2.7c2.5-2.2,4.9-5,7.3-8.4s4.8-7.2,7.1-11.2s4.3-7.8,6-11.2c-2.8-1.2-4.7-3.1-5.7-5.8c-1.1-2.7-1.4-5.4-1-8.2
			s1.5-5.2,3.2-7.3c1.7-2.1,3.9-3.2,6.5-3.2c0.9,0,2.1,0.1,3.6,0.2s2.7,0.8,3.8,2.1c1,1.3,1.6,3.3,1.8,6c0.1,2.8-0.6,6.8-2.2,12.1
			c5.3-0.1,9.5-0.9,12.7-2.2s5.6-2.8,7.4-4.4c1.8-1.6,3-3.1,3.6-4.7c0.6-1.5,1-2.5,1.3-2.9c0.4-0.9,1-1.5,1.9-1.7s1.7-0.1,2.5,0.3
			s1.4,1,1.8,1.9s0.4,1.8,0,2.9c-1.1,2.5-2.7,4.8-5,6.9c-2.2,2.1-4.9,3.9-7.8,5.4s-6.3,2.6-9.9,3.4c-3.6,0.8-7.3,1.1-11,1
			c-1.9,4.1-4.2,8.6-7,13.7c-2.8,5-6.1,9.7-9.8,14c-3.7,4.3-7.8,7.8-12.2,10.6s-9.1,4-14.2,3.6c-6.6-0.7-11.8-3.4-15.5-8.3
			c-3.8-4.9-5.8-10.8-6-17.8c-0.1-5.3,0.4-10.8,1.6-16.5s3-11.4,5.3-16.9c2.4-5.5,5.3-10.8,8.7-15.7c3.4-4.9,7.3-9.3,11.6-13
			c4.3-3.7,9-6.5,14-8.5c5.1-2,10.4-2.8,15.9-2.6c2.5,0.1,4.6,0.7,6.2,1.7s3,2.2,4.1,3.6s1.9,2.9,2.4,4.6s0.9,3.2,1.2,4.7"/>
		<path class="st2" d="M529.6,59.5c-5.2,1.1-11,2.1-17.3,2.9c-6.3,0.8-12.9,1.3-19.8,1.4c-2.8,7.1-6.1,14.9-10,23.2
			s-7.8,16.6-11.7,24.8s-7.7,16.2-11.3,23.8c-3.6,7.6-6.5,14.3-8.7,20c-2.2,5.8-3.5,10.3-4,13.8c-0.5,3.4,0.5,5,2.9,4.8
			c1.3-0.1,3-1.2,5-3.2s4.3-4.5,6.8-7.6s5.1-6.6,7.7-10.4s5.1-7.6,7.5-11.5c2.4-3.8,4.5-7.4,6.3-10.9c1.9-3.4,3.2-6.3,4-8.5
			c0.4-1.1,1-1.7,2-2c0.9-0.3,1.8-0.3,2.6,0c0.8,0.3,1.4,0.8,1.9,1.6c0.5,0.8,0.4,1.7-0.1,2.6c-1.1,2.2-2.6,5.3-4.5,9.2
			c-2,3.9-4.3,8.1-7,12.5s-5.6,8.9-8.8,13.4s-6.4,8.6-9.8,12.3s-6.8,6.7-10.2,9.1c-3.4,2.4-6.7,3.6-9.9,3.6
			c-2.6,0.1-4.9-0.4-6.8-1.6c-1.9-1.2-3.5-2.9-4.6-5.1c-1.2-2.2-2-4.8-2.4-7.9c-0.4-3.1-0.4-6.4,0-10c0.5-4.1,2.1-9.9,4.7-17.3
			c2.6-7.5,5.6-15.7,9.2-24.6s7.4-18.1,11.4-27.5s7.8-18.2,11.2-26.4c-6.9,0-13.4,0.1-19.6,0.3c-6.2,0.2-11.6,0.8-16.3,1.7
			c-4.7,0.9-8.5,2.3-11.3,4.1c-2.8,1.8-4.3,4.2-4.5,7.2c-0.1,1.9-0.6,3.1-1.5,3.7s-1.9,0.5-3-0.2s-2-2.1-2.7-4.2s-0.9-4.8-0.7-8.2
			c0.5-5.5,2.6-9.8,6.4-12.7s8.7-4.9,14.7-5.8c6-1,12.8-1.4,20.4-1.1c7.6,0.3,15.3,0.1,24.2,0.1c2.2-5.9,3.3-9.4,4.4-13.2
			c1-3.8,1.2-6.1,0.6-6.7c-0.9-0.8-0.5-1.7,1.3-2.8c1.8-1.1,4-1.6,6.6-1.8s5.4,0.5,8.2,1.8c2.8,1.3,4.9,4,6,7.9
			c0.7,1.9,0.7,4.4,0.2,7.5c-0.5,3.2-1.4,6.7-2.6,10.7c5.8,0.3,11.6,0.3,17.4,0s11-0.8,15.6-1.5"/>
		<path class="st2" d="M458.1,55.5c3.8-2.9,8.6-4.9,14.7-5.8c6-1,12.8-1.4,20.4-1.1c7.6,0.3,15.5,0.8,23.7,1.6
			c2.2-5.9,3.9-10.8,4.9-14.7c1.1-3.8,1.3-6.1,0.6-6.7c-0.9-0.8-0.5-1.7,1.3-2.8c1.8-1.1,4-1.6,6.6-1.8s5.4,0.5,8.2,1.8s4.8,4,6,7.9
			c0.7,1.9,0.7,4.4,0.2,7.5c-0.5,3.2-1.4,6.7-2.6,10.7c5.8,0.3,11.6,0.3,17.4,0c5.8-0.3,11-0.8,15.6-1.5s8.3-1.7,11.2-2.9
			c2.8-1.2,4.2-2.6,4.2-4.4c0-2,0.6-3,1.8-3.1s2.4,0.4,3.6,1.5c1.2,1.1,2,2.4,2.5,4.2c0.5,1.7-0.1,3.3-1.7,4.8
			c-1.7,1.7-4.5,3.3-8.2,4.9c-3.8,1.5-8.2,2.8-13.5,4c-5.2,1.1-11,2.1-17.3,2.9c-6.3,0.8-12.9,1.3-19.8,1.4
			c-2.8,7.1-6.1,14.9-10,23.2s-7.8,16.6-11.7,24.8s-7.6,16.2-11.3,23.8c-3.6,7.6-6.5,14.3-8.7,20c-2.2,5.8-3.5,10.3-4,13.8
			c-0.5,3.4,0.5,5,2.9,4.8c1.3-0.1,3-1.2,5-3.2s4.3-4.5,6.8-7.6s5.1-6.6,7.7-10.4c2.6-3.8,5.2-7.6,7.5-11.5
			c2.4-3.8,4.5-7.4,6.3-10.9c1.8-3.4,3.2-6.3,4-8.5c0.4-1.1,1-1.7,2-2c0.9-0.3,1.8-0.3,2.6,0s1.4,0.8,1.9,1.6
			c0.5,0.8,0.4,1.7-0.1,2.6c-1,2.2-2.6,5.3-4.5,9.2c-2,3.9-4.3,8.1-7,12.5s-5.7,8.9-8.8,13.4c-3.2,4.5-6.4,8.6-9.8,12.3
			c-3.4,3.7-6.8,6.7-10.2,9.1c-3.4,2.4-6.7,3.6-9.9,3.6c-2.6,0.1-4.9-0.4-6.8-1.6c-1.9-1.2-3.5-2.9-4.7-5.1c-1.2-2.2-2-4.8-2.4-7.9
			c-0.4-3.1-0.4-6.4,0-10c0.5-4.1,2.1-9.9,4.6-17.3c2.6-7.5,5.6-15.7,9.2-24.6S496,99.6,500,90.2s7.8-18.2,11.2-26.4
			c-6.9,0-13.4,0.1-19.6,0.3c-6.2,0.2-11.6,0.8-16.3,1.7"/>
		<path class="st2" d="M553.2,132.7c-0.7,1.5-1.2,2.8-1.6,4c7.9-2.8,14.4-6.6,19.5-11.4c5.1-4.8,8.9-9.6,11.4-14.3
			c2.5-4.7,3.8-8.7,3.9-12.2c0.1-3.4-1.1-5.2-3.5-5.3c-3.6-0.1-8.1,3.3-13.5,10.3C564,110.8,558.6,120.4,553.2,132.7z M611.2,120.2
			c1.6,1.1,2,2.5,1.2,4.3c-2.2,4.8-4.9,9.7-8,15c-3.1,5.2-6.6,10.3-10.5,15.2s-8,9.5-12.4,13.7s-8.9,7.6-13.6,10.2
			c-4.7,2.6-9.5,4.4-14.3,5.1c-4.9,0.8-9.7,0.2-14.5-1.8c-5.3-2.1-9.1-5.2-11.4-9.2c-2.3-4-3.7-8.5-4.1-13.4
			c-0.4-4.9,0-9.9,1.2-15.1c1.2-5.2,2.7-10,4.4-14.4c3.2-8.1,6.7-14.9,10.6-20.5c3.9-5.6,8-10.2,12.4-13.8c4.4-3.6,8.8-6.2,13.5-7.9
			c4.6-1.7,9.3-2.6,14-2.6c4.9,0,8.5,1.2,10.8,3.6s3.5,5.5,3.5,9.3s-1.1,8.1-3.2,12.7c-2.1,4.6-5.1,9.2-9,13.6
			c-3.9,4.4-8.6,8.4-14.2,12.1c-5.5,3.6-11.8,6.4-18.6,8.2c-0.9,3.4-1.6,6.8-2,10.2s-0.5,6.4-0.2,9.2c0.2,2.8,0.9,5.1,1.9,6.9
			c1,1.9,2.5,3,4.4,3.4c2.9,0.5,6,0.1,9.4-1.3c3.4-1.4,6.8-3.5,10.3-6.2c3.5-2.8,6.9-6,10.3-9.7c3.4-3.7,6.5-7.6,9.5-11.7
			c3-4.1,5.6-8.1,7.9-12.2c2.3-4,4.1-7.8,5.4-11.2c0.4-1.1,1.1-1.8,2.1-2.2S610.2,119.5,611.2,120.2"/>
	</g>
	<g>
		<g>
			<defs>
				<rect id="SVGID_1_" x="591" y="84" width="126" height="163.9"/>
			</defs>
			<clipPath id="SVGID_00000161602467518894187260000005546292920041878697_">
				<use xlink:href="#SVGID_1_"  style="overflow:visible;"/>
			</clipPath>
			<g style="clip-path:url(#SVGID_00000161602467518894187260000005546292920041878697_);">
				<path class="st2" d="M627.1,211.3c-2,1.6-4.2,3-6.7,4.1l-7.5,3.6c-2.5,1.2-4.9,2.5-7.2,4c-2.3,1.4-4.2,3.2-5.6,5.1
					c-0.9,1.3-1.3,2.8-1.1,4.4c0.2,1.6,0.8,3,1.8,4.3c1,1.2,2.2,2.2,3.8,2.9s3.2,0.7,5.1,0.2c1.8-0.5,3.8-1.8,5.7-3.9
					c2-2.1,3.8-5.2,5.5-9.4c0.8-1.9,1.7-4,2.9-6.5C624.7,217.5,625.9,214.6,627.1,211.3L627.1,211.3z M659.4,95.9
					c-0.7-1.6-1.7-2.4-3.2-2.4c-1.8-0.1-3.9,0.7-6.1,2.5c-2.2,1.8-4.7,4.4-7.2,7.7c-2.6,3.4-5.2,7.5-8,12.5
					c-2.8,4.9-5.5,10.5-8.3,16.5c-1.7,3.8-3.1,8-4.3,12.4s-1.8,8.6-1.9,12.7c-0.1,4,0.3,7.6,1.2,10.6s2.6,5,4.9,5.9
					c2.9,1.2,6,0.1,9.3-3.3c3.3-3.4,6.6-7.8,9.9-13.4c3.3-5.5,6.5-11.5,9.6-17.9s6-12,8.6-16.9c0-0.4,0.1-0.7,0.2-0.8
					c3.6-8.4,6.3-15.6,8.2-21.6c1.9-5.9,2.3-9.6,1.3-11.1c-0.7-0.8-0.1-1.7,1.8-2.8c1.8-1.1,4.2-1.6,6.9-1.8c2.8-0.1,5.5,0.5,8.2,2
					s4.7,4.2,5.8,8.3c0.7,2.2,0.3,5.8-1,10.8c-1.3,4.9-3.2,10.5-5.6,16.7c-2.4,6.2-5.1,12.7-8.1,19.5s-5.9,13.2-8.7,19.2
					s-5.2,11.2-7.3,15.7s-3.4,7.6-4,9.3c4.8-3.2,9.7-7.6,14.9-13.4c5.1-5.7,10-11.8,14.5-18s8.4-12.4,11.9-18.3
					c3.4-5.9,5.8-10.7,7.1-14.2c0.4-1.2,1.1-1.9,2-2.3c0.9-0.3,1.8-0.4,2.6-0.1s1.4,0.8,1.9,1.6c0.5,0.8,0.5,1.7,0.1,2.6
					c-3,6.7-6.8,13.8-11.4,21.3c-4.6,7.4-9.5,14.6-14.9,21.5s-11.1,13-17,18.5s-11.8,9.7-17.4,12.6c-0.8,2-1.9,4.5-3.2,7.6
					s-2.7,6.2-4.1,9.4c-1.4,3.2-2.7,6.1-3.8,8.9s-1.9,4.8-2.5,6.1c-1.3,3.7-3.4,6.8-6.2,9.4c-2.8,2.6-6,4.6-9.6,5.9
					c-3.6,1.4-7.3,2.2-11.1,2.4s-7.4-0.2-10.7-1.2s-6.2-2.6-8.6-4.9c-2.4-2.3-4-5.2-4.7-8.8c-0.1-1.2,0-2.6,0.5-4.3s1.6-3.4,3.5-5.2
					c2.1-2.1,4.7-4,7.6-5.8s6.1-3.4,9.3-4.9c3.2-1.6,6.4-3.2,9.5-4.9s5.8-3.5,8-5.4c1.3-3.7,2.9-7.8,4.7-12.3s3.7-9.2,5.8-14.1
					c-3.8,3.7-8,6.2-12.6,7.4c-4.5,1.2-9.7,0.8-15.3-1.5c-5.3-2.1-9.1-5.2-11.4-9.3c-2.3-4.1-3.7-8.5-4.1-13.4
					c-0.4-4.8,0-9.8,1.2-15.1c1.2-5.2,2.6-10,4.4-14.4c3.2-8.1,6.7-14.9,10.6-20.7s8-10.4,12.4-14.1c4.3-3.6,8.8-6.2,13.5-7.8
					c4.6-1.6,9.3-2.3,14.1-2.2c1.6,0.1,3.3,0.4,5.1,0.9s3.4,1.2,4.9,2.3c1.5,1.1,2.8,2.5,3.9,4.3c1.1,1.8,1.6,4,1.6,6.6"/>
			</g>
		</g>
	</g>
	<g>
		<g>
			<defs>
				<rect id="SVGID_00000047741265185230931550000007464717647662287792_" x="700" y="85" width="120.4" height="100"/>
			</defs>
			<clipPath id="SVGID_00000063602909307162557540000005018423143614137530_">
				<use xlink:href="#SVGID_00000047741265185230931550000007464717647662287792_"  style="overflow:visible;"/>
			</clipPath>
			<g style="clip-path:url(#SVGID_00000063602909307162557540000005018423143614137530_);">
				<path class="st2" d="M763.3,95.9c-0.7-1.6-1.7-2.4-3.2-2.4c-1.8-0.1-3.9,0.7-6.1,2.5c-2.2,1.8-4.7,4.4-7.2,7.7
					c-2.6,3.4-5.2,7.5-8,12.5c-2.8,4.9-5.5,10.5-8.3,16.5c-1.7,3.8-3.1,8-4.3,12.4s-1.8,8.6-1.9,12.7c-0.1,4,0.3,7.6,1.2,10.6
					s2.6,5,5,5.9c1.8,0.8,3.8,0.6,5.8-0.6c2-1.2,4.1-3,6.1-5.6c2-2.5,4.2-5.5,6.3-9.1c2.2-3.6,4.3-7.3,6.3-11.2s4-7.8,5.9-11.7
					s3.7-7.5,5.4-10.8c1.8-4.4,3.7-8.5,5.5-12.4s3.3-7.4,4.5-10.5s2-5.7,2.4-7.9c0.4-2.2,0.2-3.7-0.6-4.5c-0.9-0.8-0.5-1.7,1.3-2.8
					c1.8-1.1,4-1.6,6.6-1.8c2.6-0.1,5.4,0.5,8.2,1.8s4.9,4,6,7.9c1.2,3.8,1,8.5-0.6,14s-3.8,11.2-6.6,17.1
					c-2.8,5.9-5.9,11.8-9.1,17.6c-3.2,5.8-5.9,11-8.1,15.6c-2.2,4.6-3.4,8.2-3.8,10.9c-0.3,2.7,1,3.9,4.1,3.7
					c1.2-0.1,2.8-1.2,4.9-3.2c2.1-2,4.4-4.5,6.9-7.6s5.1-6.6,7.8-10.4c2.7-3.8,5.2-7.6,7.5-11.5c2.3-3.8,4.4-7.4,6.2-10.9
					c1.8-3.4,3.2-6.3,4-8.5c0.4-1.1,1.1-1.7,2-2s1.8-0.3,2.6,0s1.4,0.8,1.9,1.6c0.5,0.8,0.4,1.7-0.1,2.6c-1.1,2.2-2.6,5.3-4.6,9.2
					s-4.3,8.1-7,12.5s-5.6,8.9-8.8,13.4s-6.4,8.6-9.8,12.3c-3.4,3.7-6.8,6.7-10.2,9.1c-3.4,2.4-6.7,3.6-9.9,3.6
					c-5,0.3-8.8-1.8-11.3-6.1c-2.5-4.4-3.4-9.9-2.8-16.6c-2.5,4.1-5.2,7.8-7.9,11.2c-2.8,3.4-5.8,6-9,8s-6.7,3.2-10.3,3.6
					c-3.6,0.4-7.6-0.3-12-2.2c-5.3-2.1-9.1-5.2-11.4-9.3c-2.3-4.1-3.7-8.5-4.1-13.4c-0.4-4.8,0-9.8,1.2-15.1
					c1.2-5.2,2.6-10,4.3-14.4c3.2-8.1,6.7-14.9,10.6-20.7c3.9-5.7,8-10.4,12.4-14.1c4.4-3.6,8.8-6.2,13.5-7.8
					c4.6-1.6,9.3-2.3,14.1-2.2c1.6,0.1,3.3,0.4,5,0.9c1.8,0.5,3.4,1.2,5,2.3c1.5,1.1,2.8,2.5,3.9,4.3c1,1.8,1.6,4,1.6,6.6"/>
			</g>
		</g>
	</g>
</g>
</svg>
