<?xml version="1.0" encoding="UTF-8"?>
<svg id="Calque_2" data-name="Calque 2" xmlns="http://www.w3.org/2000/svg" viewBox="0 0 820.37 247.88">
  <defs>
    <style>
      .cls-1 {
        fill: #fff;
      }
    </style>
  </defs>
  <g id="Calque_1-2" data-name="Calque 1">
    <g>
      <g>
        <path class="cls-1" d="m247.22,234.29c.27,3.7,2.86,4.43,4.16,4.43,2.2,0,4.09-1.73,4.09-3.93,0-2.73-2.33-3.36-5.49-4.53-1.93-.63-6.23-2.06-6.23-6.69-.03-4.59,3.9-7.09,7.76-7.09,3.16,0,7.12,1.73,7.42,6.79h-3.86c-.27-1.33-.87-3.46-3.69-3.46-2,0-3.73,1.37-3.73,3.46,0,2.4,1.83,3,5.79,4.46,3.06,1.3,5.93,2.86,5.93,6.86s-2.7,7.46-7.96,7.46c-4.89,0-8.02-3-8.09-7.76h3.9Z"/>
        <path class="cls-1" d="m264.96,241.58h-4.26l10.12-24.63h3.56l9.95,24.63h-4.26l-2.33-5.82h-10.52l-2.26,5.82Zm7.49-20.07l-4.16,11.08h8.39l-4.23-11.08Z"/>
        <path class="cls-1" d="m287.05,216.95h3.93v21.17h8.69v3.46h-12.61v-24.63Z"/>
        <path class="cls-1" d="m299.46,229.4c0-7.75,5.96-12.91,12.88-12.91,7.36,0,12.92,5.69,12.92,12.78s-5.56,12.78-12.95,12.78-12.85-5.83-12.85-12.62v-.03Zm3.9-.13c0,5.13,3.79,9.32,9.05,9.32s8.92-4.49,8.92-9.28-3.56-9.36-8.95-9.36-9.02,4.33-9.02,9.29v.03Z"/>
        <path class="cls-1" d="m345.35,235.69l-.07-18.74h3.79v24.63h-3.59l-12.88-18.77.07,18.77h-3.79v-24.63h3.69l12.78,18.74Z"/>
        <path class="cls-1" d="m363.64,216.95h7.62c3.3,0,7.39.5,10.12,4,1.86,2.23,2.7,5.06,2.7,8.29,0,7.19-3.89,12.35-12.55,12.35h-7.89v-24.63Zm3.93,21.17h4.16c5.79,0,8.46-3.69,8.46-8.82,0-2.36-.63-4.63-2-6.29-1.3-1.5-3.26-2.6-6.42-2.6h-4.19v17.71Z"/>
        <path class="cls-1" d="m387.73,216.95h13.78v3.46h-9.85v6.99h9.72v3.42h-9.72v7.29h9.85v3.46h-13.78v-24.63Z"/>
        <path class="cls-1" d="m438.91,234.09c-1.53,4.49-6.09,7.96-11.68,7.96-7.42,0-12.88-5.83-12.88-12.82s5.23-12.75,12.85-12.75c6.62.03,10.55,4.69,11.75,8.09h-4.16c-.8-1.6-3.3-4.59-7.62-4.63-5.23,0-8.89,4.3-8.89,9.29s3.73,9.35,8.92,9.35c4.76,0,7.06-3.59,7.59-4.49h4.13Z"/>
        <path class="cls-1" d="m441.29,229.4c0-7.75,5.96-12.91,12.88-12.91,7.36,0,12.92,5.69,12.92,12.78s-5.56,12.78-12.95,12.78-12.85-5.83-12.85-12.62v-.03Zm3.9-.13c0,5.13,3.79,9.32,9.05,9.32s8.92-4.49,8.92-9.28-3.56-9.36-8.95-9.36-9.02,4.33-9.02,9.29v.03Z"/>
        <path class="cls-1" d="m470.71,216.95h3.93v24.63h-3.93v-24.63Z"/>
        <path class="cls-1" d="m479.39,216.95h12.85v3.46h-8.92v7.19h8.79v3.43h-8.79v10.55h-3.93v-24.63Z"/>
        <path class="cls-1" d="m495.79,216.95h12.85v3.46h-8.92v7.19h8.79v3.43h-8.79v10.55h-3.93v-24.63Z"/>
        <path class="cls-1" d="m516.09,216.95v15.38c0,1.53,0,2.86.9,4.3.73,1.16,2.1,1.96,3.79,1.96s3.06-.76,3.73-1.9c.93-1.4.93-2.76.93-4.36v-15.38h3.9v15.38c.03,3.26-.5,5.76-2.66,7.56-1.46,1.33-3.43,2.16-5.86,2.16-1.77,0-4.29-.5-5.96-2.13-2.43-2.16-2.73-4.6-2.7-7.59v-15.38h3.93Z"/>
        <path class="cls-1" d="m533.89,216.95h6.96c3.86,0,5.86.53,7.16,1.43,2.03,1.33,3.26,3.9,3.26,6.66,0,1.73-.5,3.39-1.4,4.69-1.26,1.77-2.86,2.36-4.76,2.7l5.79,9.15h-4.16l-6.76-11.12h.87c1.7,0,3.76-.06,4.93-1.07,1.13-1,1.7-2.43,1.7-4.03s-.8-3.3-2.1-4.16c-1.07-.66-2.43-.8-4.19-.8h-3.36v21.17h-3.93v-24.63Z"/>
        <path class="cls-1" d="m554.28,216.95h13.78v3.46h-9.85v6.99h9.72v3.42h-9.72v7.29h9.85v3.46h-13.78v-24.63Z"/>
      </g>
      <g>
        <path class="cls-1" d="m196.06,141.43c.86-5.14,2.78-9.03,5.78-11.68,3-2.64,6.46-4.35,10.39-5.14,3.93-.78,7.96-.68,12.11.32,4.14,1,7.71,2.57,10.71,4.71-3.86,2.29-7.04,5.25-9.53,8.89-2.5,3.64-4.32,7.5-5.46,11.57-1.15,4.07-1.54,8.25-1.18,12.54.35,4.28,1.53,8.21,3.54,11.79,3.43,5.71,8.36,9.71,14.79,12,6.43,2.28,13.5,3.14,21.21,2.57,7.72-.57,15.68-2.32,23.89-5.25,8.21-2.93,15.82-6.75,22.82-11.46,7-4.71,13.04-10.1,18.11-16.18,5.07-6.07,8.39-12.46,9.96-19.18,1.29-6.14,1.21-11.25-.21-15.32-1.43-4.07-3.75-7.39-6.96-9.96-3.21-2.57-7.04-4.53-11.46-5.89-4.43-1.36-8.97-2.28-13.61-2.79-4.64-.5-9.22-.75-13.71-.75h-11.47l2.78-6.21c8.15-2.29,17.11-5.93,26.89-10.93,9.78-5,19.14-10.89,28.07-17.68,8.93-6.78,16.82-14.32,23.68-22.61,6.86-8.28,11.5-17,13.93-26.14-5.71-3.86-12.5-6.54-20.35-8.03-7.86-1.5-16.18-1.75-24.97-.75-8.78,1-17.68,3.14-26.68,6.43-9,3.29-17.5,7.72-25.5,13.29-8.01,5.57-15.22,12.32-21.65,20.25-6.43,7.93-11.36,16.97-14.79,27.11-3.29-2.86-6.29-5.82-9-8.89-2.72-3.07-4.75-6.21-6.11-9.43-1.36-3.21-1.96-6.61-1.82-10.18.14-3.57,1.35-7.36,3.64-11.36,5.43-7.72,12.78-14.21,22.07-19.5,9.28-5.28,19.39-9.36,30.32-12.21,10.93-2.86,22.21-4.57,33.86-5.14,11.64-.57,22.68-.03,33.11,1.61,10.43,1.64,19.71,4.32,27.86,8.03,8.14,3.72,14.14,8.43,18,14.14,4,5.86,4.46,12.1,1.4,18.75-3.07,6.64-8.79,13.25-17.14,19.82-8.36,6.57-18.93,12.89-31.71,18.96-12.79,6.07-26.89,11.32-42.32,15.75,6.14-.43,12.32-.71,18.54-.86,6.22-.14,11.93.4,17.14,1.61,5.21,1.22,9.71,3.32,13.5,6.32,3.79,3,6.25,7.36,7.39,13.07,1.29,7.28.89,14.36-1.18,21.21-2.07,6.86-5.43,13.25-10.07,19.18-4.64,5.93-10.36,11.36-17.14,16.28-6.79,4.93-14.22,9.14-22.29,12.64-8.07,3.5-16.57,6.22-25.5,8.14-8.93,1.93-17.82,2.89-26.68,2.89s-17.54-1.32-25.18-3.97c-7.64-2.65-14.04-6.43-19.18-11.36-5.14-4.93-8.89-10.85-11.25-17.78-2.36-6.93-2.82-14.68-1.39-23.25Zm39.21,4.29c2.86-6.43,6.29-13.43,10.29-21,4-7.57,8.25-15.28,12.75-23.14,4.5-7.86,9.18-15.68,14.04-23.46,4.86-7.78,9.64-15.14,14.36-22.07,4.71-6.93,9.18-13.25,13.39-18.96,4.21-5.71,7.96-10.43,11.25-14.14,1.85-2.14,4.07-3.5,6.64-4.07,2.57-.57,5.18-.71,7.82-.43,2.64.29,5.25.89,7.82,1.82,2.57.93,4.85,1.89,6.86,2.89-6.57,5.86-13.58,13.11-21,21.75-7.43,8.64-14.82,17.86-22.18,27.64-7.36,9.78-14.43,19.75-21.22,29.89-6.79,10.14-12.79,19.64-18,28.5-5.22,8.86-9.36,16.71-12.43,23.57-3.07,6.86-4.61,11.86-4.61,15-1.57-1.43-3.04-2.86-4.39-4.29-1.36-1.42-2.4-3-3.11-4.71-.72-1.71-.97-3.75-.75-6.11.21-2.36,1.04-5.25,2.46-8.68Z"/>
        <g>
          <path class="cls-1" d="m54.23,130.59c-10.99,7.03-23.73,10.87-38.23,11.53-2.86.44-5.47.41-7.83-.08-2.36-.49-4.31-1.51-5.85-3.05-1.21-1.32-1.95-2.91-2.22-4.78-.27-1.87.03-3.84.91-5.93,1.21-2.86,3.32-5.41,6.34-7.66,3.02-2.25,6.84-3.98,11.45-5.19,3.73-.99,7.44-1.34,11.12-1.07,3.68.28,7.44,1.02,11.29,2.22,2.64-4.06,5.03-8.84,7.17-14.34,2.14-5.49,4.17-11.29,6.1-17.38,1.92-6.1,3.84-12.3,5.77-18.62,1.92-6.32,3.9-12.39,5.93-18.21,2.03-5.82,4.23-11.18,6.59-16.07,2.36-4.89,5.03-8.93,7.99-12.11,1.65-1.76,3.68-3.02,6.1-3.79,2.42-.77,4.89-1.15,7.42-1.15s4.97.25,7.33.74c2.36.49,4.31,1.18,5.85,2.06,1.54.88,2.5,1.81,2.88,2.8.38.99-.08,1.92-1.4,2.8-2.97,1.87-5.47,5.16-7.5,9.89-2.03,4.73-3.95,10.25-5.77,16.56-1.81,6.32-3.66,13.13-5.52,20.43-1.87,7.31-4.09,14.45-6.67,21.42-2.58,6.98-5.71,13.49-9.39,19.53-3.68,6.04-8.22,10.99-13.59,14.83,5.05,3.74,10.38,7.55,15.98,11.45,5.6,3.9,11.48,7.55,17.63,10.96,6.15,3.4,12.58,6.45,19.28,9.15,6.7,2.69,13.62,4.7,20.76,6.01,7.14,1.32,14.56,1.81,22.25,1.48,7.69-.33,15.54-1.76,23.57-4.28,1.09-.33,1.95.69,2.55,3.05.6,2.36.66,5.11.16,8.24-.49,3.13-1.76,6.15-3.79,9.06-2.03,2.91-5.19,4.81-9.48,5.68-6.37,1.32-12.83,1.21-19.36-.33-6.54-1.54-13.13-3.9-19.78-7.09-6.65-3.19-13.29-6.98-19.94-11.37-6.65-4.4-13.18-8.9-19.61-13.51-6.43-4.61-12.69-9.04-18.79-13.26-6.1-4.23-12-7.77-17.72-10.63Z"/>
          <path class="cls-1" d="m145.52,68.96c-.55-1.32-1.43-1.98-2.64-1.98-1.54-.11-3.24.58-5.11,2.06-1.87,1.48-3.87,3.62-6.01,6.43-2.14,2.8-4.37,6.26-6.67,10.38-2.31,4.12-4.61,8.71-6.92,13.76-1.43,3.19-2.61,6.62-3.54,10.3-.94,3.68-1.46,7.2-1.57,10.55-.11,3.35.22,6.29.99,8.81.77,2.53,2.14,4.18,4.12,4.94,1.54.66,3.16.49,4.86-.49,1.7-.99,3.4-2.53,5.11-4.61,1.7-2.08,3.46-4.61,5.27-7.58,1.81-2.97,3.57-6.07,5.27-9.31,1.7-3.24,3.35-6.48,4.94-9.72,1.59-3.24,3.1-6.23,4.53-8.98,1.54-3.63,3.05-7.06,4.53-10.3,1.48-3.24,2.72-6.15,3.71-8.73.99-2.58,1.65-4.78,1.98-6.59.33-1.81.16-3.05-.49-3.71-.77-.66-.41-1.43,1.07-2.31,1.48-.88,3.32-1.37,5.52-1.48,2.2-.11,4.47.39,6.84,1.48,2.36,1.1,4.04,3.3,5.02,6.59.99,3.19.82,7.06-.49,11.62-1.32,4.56-3.16,9.31-5.52,14.25-2.36,4.94-4.89,9.83-7.58,14.67-2.7,4.84-4.94,9.15-6.76,12.94-1.81,3.79-2.86,6.81-3.13,9.06-.27,2.25.85,3.27,3.38,3.05.99-.11,2.36-.99,4.12-2.64,1.75-1.65,3.68-3.76,5.77-6.34,2.09-2.58,4.26-5.46,6.51-8.65,2.25-3.19,4.34-6.37,6.26-9.56,1.92-3.18,3.65-6.21,5.19-9.06,1.54-2.86,2.64-5.22,3.3-7.09.33-.88.88-1.43,1.65-1.65.77-.22,1.48-.22,2.14,0,.66.22,1.18.66,1.56,1.32.38.66.36,1.38-.08,2.14-.88,1.87-2.14,4.42-3.79,7.66-1.65,3.24-3.6,6.7-5.85,10.38-2.25,3.68-4.7,7.39-7.33,11.12-2.64,3.74-5.35,7.14-8.16,10.22-2.8,3.08-5.63,5.6-8.49,7.58-2.86,1.98-5.6,2.97-8.24,2.97-4.18.22-7.31-1.48-9.39-5.11-2.09-3.62-2.86-8.24-2.31-13.84-2.09,3.41-4.28,6.51-6.59,9.31-2.31,2.8-4.81,5.02-7.5,6.67-2.69,1.65-5.55,2.64-8.57,2.97-3.02.33-6.34-.27-9.97-1.81-4.4-1.76-7.55-4.34-9.47-7.74-1.92-3.41-3.05-7.11-3.38-11.12-.33-4.01,0-8.18.99-12.52.99-4.34,2.2-8.32,3.62-11.95,2.64-6.7,5.57-12.44,8.81-17.22,3.24-4.78,6.67-8.68,10.3-11.7,3.63-3.02,7.36-5.19,11.21-6.51,3.84-1.32,7.75-1.92,11.7-1.81,1.32.11,2.72.36,4.2.74,1.48.39,2.86,1.02,4.12,1.9,1.26.88,2.33,2.06,3.21,3.54.88,1.48,1.32,3.32,1.32,5.52"/>
        </g>
        <path class="cls-1" d="m411.44,95.86c-1.06-1.85-2.28-2.77-3.66-2.77s-2.87.56-4.45,1.68c-1.59,1.12-3.2,2.64-4.85,4.55-1.65,1.92-3.27,3.86-4.85,5.84-2.77,3.56-5.45,7.69-8.02,12.38-2.57,4.69-4.85,9.5-6.83,14.46-1.98,4.95-3.56,9.84-4.75,14.65-1.19,4.82-1.82,9.21-1.88,13.17-.07,3.96.49,7.23,1.68,9.8,1.19,2.57,3.17,4.13,5.94,4.65,1.98.4,4.19-.5,6.63-2.67,2.44-2.18,4.88-4.98,7.33-8.42,2.44-3.43,4.82-7.16,7.13-11.19,2.31-4.02,4.32-7.75,6.04-11.19-2.77-1.19-4.68-3.13-5.74-5.84-1.06-2.7-1.39-5.45-.99-8.22.39-2.77,1.45-5.21,3.17-7.33,1.71-2.11,3.89-3.17,6.54-3.17.92,0,2.11.07,3.56.2,1.45.13,2.7.83,3.76,2.08,1.06,1.26,1.65,3.27,1.78,6.04.13,2.77-.59,6.8-2.18,12.08,5.28-.13,9.5-.86,12.68-2.18,3.17-1.32,5.64-2.77,7.43-4.36,1.78-1.59,2.97-3.14,3.56-4.65.59-1.52,1.02-2.48,1.29-2.87.4-.92,1.02-1.49,1.88-1.68.86-.2,1.68-.1,2.48.3.79.4,1.39,1.02,1.78,1.88.4.86.4,1.82,0,2.87-1.06,2.51-2.71,4.82-4.95,6.93-2.25,2.11-4.85,3.89-7.82,5.34-2.97,1.46-6.27,2.57-9.9,3.37-3.63.79-7.3,1.12-10.99.99-1.85,4.09-4.19,8.65-7.03,13.66-2.84,5.02-6.11,9.67-9.8,13.96-3.7,4.29-7.75,7.82-12.18,10.59-4.42,2.77-9.14,3.96-14.16,3.57-6.6-.66-11.78-3.43-15.55-8.32-3.76-4.88-5.77-10.82-6.04-17.82-.13-5.28.4-10.79,1.58-16.53,1.19-5.74,2.97-11.39,5.35-16.93,2.38-5.54,5.28-10.79,8.71-15.74,3.43-4.95,7.29-9.27,11.58-12.97,4.29-3.7,8.98-6.54,14.06-8.52,5.08-1.98,10.4-2.84,15.94-2.57,2.51.13,4.59.69,6.24,1.68,1.65.99,3,2.18,4.06,3.57,1.06,1.39,1.85,2.91,2.38,4.55.52,1.65.92,3.2,1.19,4.65"/>
        <path class="cls-1" d="m529.56,59.52c-5.22,1.12-10.99,2.08-17.33,2.87-6.34.79-12.94,1.26-19.8,1.39-2.77,7.13-6.11,14.85-10,23.17-3.9,8.32-7.79,16.6-11.68,24.85-3.89,8.25-7.66,16.17-11.29,23.76-3.64,7.59-6.54,14.26-8.71,20-2.18,5.74-3.5,10.33-3.96,13.76-.46,3.43.5,5.02,2.87,4.75,1.32-.13,3-1.19,5.05-3.17,2.04-1.98,4.32-4.52,6.83-7.62,2.5-3.1,5.08-6.57,7.72-10.39,2.64-3.83,5.15-7.66,7.53-11.49,2.37-3.83,4.49-7.46,6.34-10.89,1.85-3.43,3.17-6.27,3.96-8.52.4-1.05,1.06-1.71,1.98-1.98.92-.26,1.78-.26,2.58,0,.79.27,1.42.79,1.88,1.58.46.79.43,1.65-.1,2.57-1.06,2.25-2.57,5.32-4.55,9.21-1.98,3.9-4.32,8.05-7.03,12.48-2.71,4.43-5.64,8.88-8.81,13.37-3.17,4.49-6.44,8.58-9.8,12.28-3.37,3.7-6.77,6.73-10.2,9.11-3.43,2.38-6.73,3.57-9.9,3.57-2.64.13-4.92-.4-6.83-1.58-1.91-1.19-3.46-2.87-4.65-5.05-1.19-2.18-1.98-4.82-2.38-7.92-.4-3.1-.4-6.44,0-10,.53-4.09,2.08-9.87,4.66-17.33,2.57-7.46,5.64-15.64,9.21-24.55,3.57-8.91,7.36-18.09,11.39-27.52,4.02-9.44,7.75-18.25,11.19-26.43-6.86,0-13.4.1-19.6.3-6.2.2-11.65.76-16.34,1.68-4.68.92-8.45,2.28-11.29,4.06-2.84,1.78-4.32,4.19-4.46,7.23-.13,1.85-.64,3.07-1.55,3.66-.9.59-1.9.53-2.99-.2-1.09-.73-2-2.11-2.71-4.16-.71-2.04-.94-4.78-.67-8.22.52-5.55,2.66-9.77,6.42-12.67,3.77-2.9,8.66-4.85,14.66-5.84,6.01-.99,12.81-1.35,20.4-1.09,7.59.27,15.28.11,24.21.11,2.24-5.94,3.34-9.35,4.4-13.18,1.05-3.83,1.25-6.07.59-6.73-.93-.79-.5-1.71,1.29-2.77,1.78-1.06,3.99-1.65,6.63-1.78,2.64-.13,5.38.46,8.22,1.78,2.84,1.32,4.85,3.96,6.04,7.92.66,1.85.73,4.36.2,7.52-.53,3.17-1.39,6.73-2.57,10.69,5.81.27,11.61.27,17.42,0,5.81-.26,11.02-.76,15.64-1.48"/>
        <path class="cls-1" d="m458.07,55.46c3.77-2.9,8.66-4.85,14.66-5.84,6.01-.99,12.81-1.35,20.39-1.09,7.59.27,15.48.79,23.66,1.58,2.24-5.94,3.89-10.82,4.95-14.65,1.06-3.83,1.25-6.07.59-6.73-.92-.79-.49-1.71,1.29-2.77,1.78-1.06,3.99-1.65,6.63-1.78,2.64-.13,5.38.46,8.22,1.78,2.84,1.32,4.85,3.96,6.04,7.92.66,1.85.72,4.36.2,7.52-.53,3.17-1.39,6.73-2.58,10.69,5.81.27,11.62.27,17.43,0,5.81-.26,11.02-.76,15.64-1.48,4.62-.73,8.35-1.68,11.19-2.87,2.84-1.19,4.25-2.64,4.25-4.36,0-1.98.59-3,1.78-3.07,1.19-.07,2.38.43,3.56,1.48,1.19,1.06,2.01,2.45,2.48,4.16.46,1.72-.1,3.3-1.68,4.75-1.72,1.72-4.45,3.34-8.22,4.85-3.76,1.52-8.25,2.84-13.46,3.96-5.22,1.12-10.99,2.08-17.33,2.87-6.34.79-12.94,1.26-19.8,1.39-2.77,7.13-6.11,14.85-10,23.17-3.89,8.32-7.79,16.6-11.68,24.85-3.9,8.25-7.66,16.17-11.29,23.76-3.63,7.59-6.53,14.26-8.71,20-2.18,5.74-3.5,10.33-3.96,13.76-.46,3.43.49,5.02,2.87,4.75,1.31-.13,3-1.19,5.05-3.17,2.05-1.98,4.32-4.52,6.83-7.62,2.51-3.1,5.08-6.57,7.73-10.39,2.64-3.83,5.15-7.66,7.52-11.49,2.38-3.83,4.49-7.46,6.34-10.89,1.85-3.43,3.17-6.27,3.96-8.52.4-1.05,1.05-1.71,1.98-1.98.92-.26,1.78-.26,2.57,0,.79.27,1.42.79,1.88,1.58.46.79.43,1.65-.1,2.57-1.06,2.25-2.58,5.32-4.55,9.21-1.98,3.9-4.33,8.05-7.03,12.48-2.71,4.43-5.65,8.88-8.81,13.37-3.17,4.49-6.43,8.58-9.8,12.28-3.37,3.7-6.77,6.73-10.2,9.11-3.43,2.38-6.73,3.57-9.9,3.57-2.64.13-4.92-.4-6.83-1.58-1.91-1.19-3.47-2.87-4.66-5.05-1.19-2.18-1.98-4.82-2.37-7.92-.4-3.1-.4-6.44,0-10,.53-4.09,2.08-9.87,4.65-17.33,2.58-7.46,5.65-15.64,9.21-24.55,3.56-8.91,7.36-18.09,11.38-27.52,4.03-9.44,7.75-18.25,11.19-26.43-6.87,0-13.4.1-19.61.3-6.2.2-11.65.76-16.34,1.68"/>
        <path class="cls-1" d="m611.24,120.21c1.58,1.06,1.98,2.51,1.19,4.36-2.25,4.75-4.92,9.74-8.02,14.95-3.1,5.22-6.6,10.3-10.5,15.25-3.9,4.95-8.02,9.5-12.38,13.66-4.36,4.16-8.88,7.56-13.57,10.2-4.69,2.64-9.47,4.36-14.36,5.15-4.89.79-9.7.2-14.46-1.78-5.28-2.11-9.08-5.18-11.39-9.21-2.31-4.03-3.66-8.48-4.06-13.37-.39-4.88,0-9.93,1.19-15.15,1.19-5.21,2.64-10,4.36-14.36,3.17-8.05,6.7-14.88,10.59-20.5,3.89-5.61,8.02-10.2,12.38-13.76,4.36-3.57,8.84-6.2,13.46-7.92,4.62-1.71,9.31-2.57,14.06-2.57s8.48,1.19,10.79,3.56c2.31,2.38,3.47,5.48,3.47,9.31s-1.06,8.05-3.17,12.67c-2.11,4.62-5.12,9.14-9.01,13.56-3.89,4.43-8.61,8.45-14.16,12.08-5.54,3.63-11.75,6.37-18.61,8.22-.93,3.43-1.58,6.83-1.98,10.2-.4,3.36-.46,6.43-.2,9.21.26,2.77.89,5.08,1.88,6.93.99,1.85,2.48,2.97,4.46,3.37,2.9.53,6.04.1,9.4-1.29,3.37-1.39,6.8-3.46,10.3-6.24,3.5-2.77,6.93-6.01,10.3-9.7,3.37-3.69,6.54-7.59,9.5-11.68,2.97-4.09,5.61-8.15,7.92-12.18,2.31-4.03,4.13-7.75,5.45-11.19.4-1.05,1.09-1.78,2.08-2.18.99-.4,2.01-.26,3.07.4Zm-58.02,12.48c-.66,1.45-1.19,2.77-1.59,3.96,7.92-2.77,14.42-6.57,19.5-11.39,5.08-4.82,8.88-9.57,11.39-14.26,2.5-4.68,3.79-8.74,3.86-12.18.07-3.43-1.09-5.21-3.46-5.34-3.57-.13-8.05,3.3-13.47,10.29-5.41,7-10.82,16.64-16.23,28.91Z"/>
        <path class="cls-1" d="m659.36,95.86c-.66-1.59-1.72-2.38-3.17-2.38-1.85-.13-3.9.69-6.14,2.48-2.25,1.78-4.66,4.36-7.23,7.72-2.58,3.37-5.25,7.52-8.02,12.48-2.77,4.95-5.54,10.46-8.32,16.54-1.72,3.83-3.14,7.96-4.26,12.38-1.12,4.42-1.75,8.65-1.88,12.67-.14,4.03.26,7.56,1.19,10.59.92,3.04,2.57,5.02,4.95,5.94,2.9,1.19,6,.1,9.31-3.27,3.3-3.36,6.6-7.82,9.9-13.36,3.3-5.55,6.5-11.52,9.6-17.92,3.1-6.4,5.97-12.04,8.62-16.93,0-.4.07-.66.2-.79,3.56-8.45,6.3-15.64,8.22-21.58,1.91-5.94,2.34-9.64,1.29-11.09-.66-.79-.07-1.71,1.78-2.77,1.85-1.05,4.16-1.65,6.93-1.78,2.77-.13,5.51.53,8.22,1.98,2.7,1.46,4.66,4.23,5.84,8.32.66,2.25.33,5.84-.99,10.79-1.32,4.95-3.17,10.53-5.55,16.73-2.38,6.2-5.09,12.71-8.12,19.5-3.04,6.8-5.94,13.2-8.71,19.21-2.77,6.01-5.22,11.26-7.32,15.74-2.12,4.49-3.44,7.59-3.96,9.31,4.75-3.17,9.7-7.62,14.85-13.37,5.15-5.74,9.97-11.75,14.45-18.02,4.49-6.27,8.45-12.38,11.88-18.32,3.43-5.94,5.81-10.69,7.13-14.26.4-1.19,1.05-1.95,1.98-2.28.92-.33,1.78-.36,2.58-.1.79.27,1.42.79,1.88,1.58.46.79.49,1.65.1,2.57-3.04,6.73-6.83,13.83-11.39,21.29-4.55,7.46-9.54,14.62-14.95,21.48-5.41,6.86-11.09,13.04-17.03,18.51-5.94,5.48-11.75,9.67-17.42,12.57-.79,1.98-1.85,4.52-3.17,7.62-1.32,3.1-2.67,6.24-4.06,9.41-1.39,3.17-2.64,6.14-3.76,8.91-1.12,2.77-1.95,4.82-2.48,6.14-1.32,3.7-3.4,6.83-6.24,9.41-2.84,2.57-6.04,4.55-9.6,5.94-3.57,1.39-7.26,2.18-11.09,2.38-3.83.2-7.4-.2-10.69-1.19-3.3-.99-6.17-2.64-8.61-4.95-2.44-2.31-3.99-5.25-4.65-8.81-.13-1.19.03-2.61.49-4.26.46-1.65,1.62-3.4,3.47-5.25,2.11-2.11,4.65-4.03,7.62-5.74,2.97-1.72,6.07-3.36,9.31-4.95,3.23-1.58,6.4-3.2,9.5-4.85,3.1-1.65,5.77-3.46,8.02-5.44,1.32-3.7,2.87-7.79,4.65-12.28,1.78-4.49,3.73-9.18,5.84-14.06-3.83,3.7-8.02,6.17-12.57,7.43-4.55,1.25-9.67.76-15.35-1.48-5.28-2.11-9.08-5.21-11.39-9.31-2.31-4.09-3.66-8.55-4.06-13.37-.39-4.82,0-9.83,1.19-15.05,1.19-5.21,2.64-10,4.36-14.36,3.17-8.05,6.7-14.95,10.59-20.69,3.89-5.74,8.02-10.43,12.38-14.06,4.36-3.63,8.84-6.24,13.46-7.82,4.62-1.58,9.31-2.31,14.06-2.18,1.59.13,3.27.43,5.05.89,1.78.46,3.43,1.22,4.95,2.28,1.51,1.06,2.8,2.48,3.86,4.26,1.06,1.78,1.58,3.99,1.58,6.63m-41.39,112.08c-1.98,1.58-4.23,2.97-6.73,4.16-2.51,1.19-5.02,2.38-7.52,3.57-2.51,1.19-4.92,2.51-7.23,3.96-2.31,1.45-4.19,3.17-5.64,5.15-.92,1.32-1.29,2.77-1.09,4.36.2,1.59.79,3,1.78,4.26.99,1.25,2.25,2.21,3.76,2.87,1.52.66,3.2.72,5.05.2,1.85-.53,3.76-1.82,5.74-3.86,1.98-2.05,3.83-5.18,5.54-9.41.79-1.85,1.75-4.03,2.87-6.54,1.12-2.51,2.28-5.41,3.46-8.71Z"/>
        <path class="cls-1" d="m763.32,95.86c-.66-1.59-1.72-2.38-3.17-2.38-1.85-.13-3.9.69-6.14,2.48-2.25,1.78-4.65,4.36-7.23,7.72-2.57,3.37-5.25,7.52-8.02,12.48-2.78,4.95-5.54,10.46-8.32,16.54-1.72,3.83-3.14,7.96-4.26,12.38-1.12,4.42-1.75,8.65-1.88,12.67-.13,4.03.26,7.56,1.19,10.59.92,3.04,2.57,5.02,4.95,5.94,1.85.79,3.79.59,5.84-.59,2.04-1.19,4.09-3.04,6.14-5.54,2.04-2.5,4.16-5.54,6.34-9.11,2.18-3.56,4.29-7.29,6.34-11.19,2.04-3.89,4.02-7.79,5.94-11.68,1.91-3.89,3.73-7.49,5.44-10.79,1.85-4.36,3.66-8.48,5.44-12.38,1.78-3.89,3.27-7.39,4.46-10.5,1.19-3.1,1.98-5.74,2.37-7.92.4-2.18.2-3.66-.59-4.45-.92-.79-.49-1.71,1.29-2.77,1.78-1.05,3.99-1.65,6.63-1.78,2.64-.13,5.38.46,8.22,1.78,2.84,1.32,4.85,3.96,6.04,7.92,1.19,3.83.99,8.48-.59,13.96-1.59,5.48-3.8,11.19-6.63,17.13-2.84,5.94-5.87,11.82-9.11,17.62-3.24,5.81-5.94,10.99-8.12,15.55-2.18,4.55-3.43,8.19-3.76,10.89-.33,2.71,1.02,3.93,4.06,3.66,1.19-.13,2.84-1.19,4.95-3.17,2.11-1.98,4.42-4.52,6.93-7.62,2.51-3.1,5.11-6.57,7.82-10.39,2.71-3.83,5.22-7.66,7.53-11.49,2.31-3.83,4.38-7.46,6.24-10.89,1.85-3.43,3.17-6.27,3.96-8.52.4-1.05,1.06-1.71,1.98-1.98.92-.26,1.78-.26,2.57,0,.79.27,1.42.79,1.89,1.58.46.79.43,1.65-.1,2.57-1.06,2.25-2.57,5.32-4.55,9.21-1.98,3.9-4.33,8.05-7.03,12.48-2.71,4.43-5.64,8.88-8.81,13.37-3.17,4.49-6.43,8.58-9.8,12.28-3.37,3.7-6.77,6.73-10.2,9.11-3.43,2.38-6.73,3.57-9.9,3.57-5.02.27-8.78-1.78-11.28-6.14-2.51-4.36-3.44-9.9-2.78-16.63-2.51,4.09-5.15,7.82-7.92,11.19-2.77,3.36-5.78,6.04-9.01,8.02-3.23,1.98-6.67,3.17-10.3,3.57-3.63.4-7.62-.33-11.98-2.18-5.28-2.11-9.07-5.21-11.39-9.31-2.31-4.09-3.66-8.55-4.06-13.37-.39-4.82,0-9.83,1.19-15.05,1.19-5.21,2.64-10,4.36-14.36,3.17-8.05,6.7-14.95,10.59-20.69,3.89-5.74,8.02-10.43,12.38-14.06,4.36-3.63,8.84-6.24,13.47-7.82,4.62-1.58,9.31-2.31,14.06-2.18,1.59.13,3.27.43,5.05.89,1.78.46,3.43,1.22,4.95,2.28,1.52,1.06,2.8,2.48,3.86,4.26,1.05,1.78,1.59,3.99,1.59,6.63"/>
      </g>
    </g>
  </g>
</svg>